<?xml version="1.0" standalone="no"?>
<!DOCTYPE svg PUBLIC "-//W3C//DTD SVG 20010904//EN"
 "http://www.w3.org/TR/2001/REC-SVG-20010904/DTD/svg10.dtd">
<svg version="1.0" xmlns="http://www.w3.org/2000/svg"
 width="256.000000pt" height="255.000000pt" viewBox="0 0 256.000000 255.000000"
 preserveAspectRatio="xMidYMid meet">

<g transform="translate(0.000000,255.000000) scale(0.100000,-0.100000)"
fill="#000000" stroke="none">
<path d="M1985 2378 c-2 -7 -16 -58 -30 -113 -26 -95 -26 -101 -10 -131 15
-27 61 -64 81 -64 4 0 -6 15 -23 33 -41 42 -48 72 -29 138 8 30 20 73 26 96
10 41 12 42 58 46 46 3 46 3 -11 5 -39 1 -59 -2 -62 -10z"/>
<path d="M2290 2376 c64 -11 65 -11 68 -46 4 -43 -17 -255 -28 -285 -11 -30
-47 -37 -124 -25 -73 11 -129 1 -61 -12 22 -4 59 -7 82 -7 23 -1 43 -5 45 -10
2 -4 27 -10 56 -13 l52 -5 0 208 0 209 -77 -1 -78 -1 65 -12z"/>
<path d="M2087 2014 c-4 -4 -7 -17 -7 -28 1 -19 1 -20 11 -3 11 19 8 43 -4 31z"/>
<path d="M2230 1967 c0 -9 -7 -17 -16 -17 -11 0 -14 -6 -9 -20 4 -12 2 -20 -5
-20 -7 0 -10 -6 -7 -14 3 -8 1 -16 -5 -18 -12 -4 -2 -28 11 -28 11 0 46 118
38 127 -4 3 -7 -1 -7 -10z"/>
<path d="M2167 1803 c-13 -22 -18 -73 -7 -73 6 0 8 5 4 11 -3 6 -2 14 3 18 15
9 26 51 14 51 -5 0 -12 -3 -14 -7z"/>
<path d="M2030 1769 c0 -5 5 -7 10 -4 6 3 10 8 10 11 0 2 -4 4 -10 4 -5 0 -10
-5 -10 -11z"/>
<path d="M1178 1685 c-43 -16 -100 -53 -210 -138 -56 -43 -75 -63 -71 -75 5
-11 8 -12 11 -3 3 8 9 6 19 -8 8 -12 19 -19 24 -16 14 9 37 -18 30 -35 -7 -17
-31 -25 -31 -10 0 6 -8 5 -20 -2 -11 -7 -20 -16 -20 -21 0 -4 4 -5 10 -2 14 9
-11 -45 -39 -82 -31 -42 -74 -42 -79 0 -3 28 -17 36 -25 15 -2 -7 -8 -10 -12
-5 -5 4 -1 13 8 20 9 6 23 29 32 50 28 68 -20 41 -77 -43 -22 -33 -23 -37 -10
-77 8 -24 21 -43 28 -43 8 0 14 -7 14 -16 0 -18 16 -36 47 -52 29 -16 43 -15
43 2 0 13 20 26 40 26 5 0 11 -9 15 -19 3 -11 11 -18 18 -17 20 3 80 43 106
70 24 26 24 26 3 26 -12 0 -22 5 -22 10 0 6 -10 10 -21 10 -18 0 -19 2 -9 15
7 8 19 15 27 15 8 0 11 5 7 12 -5 8 0 9 15 5 14 -3 24 0 28 9 3 8 9 12 13 9 5
-3 3 -18 -3 -35 -13 -34 -4 -48 18 -30 13 11 13 15 3 23 -10 7 -9 8 3 4 9 -3
31 11 54 34 21 21 42 39 47 39 12 0 10 -75 -3 -102 -11 -22 -113 -109 -462
-392 -212 -171 -540 -426 -549 -426 -4 0 -9 19 -11 42 -2 28 -4 16 -5 -31 -2
-62 0 -72 11 -59 6 9 70 62 142 118 210 163 629 506 715 585 47 43 119 95 132
95 5 0 8 -14 8 -30 0 -37 23 -85 45 -94 9 -3 14 -10 10 -16 -3 -5 12 -21 35
-36 33 -22 48 -26 81 -21 47 6 90 37 52 37 -12 0 -25 -5 -29 -11 -5 -8 -10 -6
-16 5 -5 9 -18 16 -28 16 -11 0 -20 7 -20 16 0 8 -5 12 -10 9 -6 -4 -8 -10 -5
-15 11 -17 -28 -20 -41 -3 -37 47 -48 109 -24 138 12 15 12 19 -4 30 -14 11
-15 16 -5 33 10 15 10 34 2 78 -10 58 -10 59 21 96 46 54 77 121 83 182 5 49
3 57 -20 80 -29 29 -62 32 -119 11z m-74 -94 c3 -5 -3 -11 -13 -14 -14 -3 -18
-1 -14 9 6 16 19 18 27 5z m-34 -55 c0 -19 -23 -33 -28 -17 -3 9 -8 9 -20 -1
-12 -9 -11 -6 2 10 22 25 46 29 46 8z m-110 -51 c0 -8 -4 -15 -8 -15 -5 0 -9
7 -9 15 0 8 4 15 9 15 4 0 8 -7 8 -15z m85 5 c-3 -5 -11 -10 -16 -10 -6 0 -7
5 -4 10 3 6 11 10 16 10 6 0 7 -4 4 -10z m-3 -26 c27 -14 29 -17 15 -31 -13
-14 -17 -13 -36 6 -20 20 -28 41 -16 41 4 0 20 -7 37 -16z m145 -28 c-2 -6
-14 -12 -26 -14 -20 -3 -21 -1 -12 17 12 21 45 19 38 -3z m-182 -66 c-3 -6
-14 -9 -22 -8 -9 2 -18 -3 -21 -11 -3 -8 0 -11 7 -7 6 4 11 2 11 -3 0 -6 -4
-11 -10 -11 -5 0 -13 0 -17 0 -4 0 -8 6 -9 14 -1 8 12 21 29 30 33 16 43 15
32 -4z m89 -8 c3 -5 -1 -9 -9 -9 -8 0 -12 4 -9 9 3 4 7 8 9 8 2 0 6 -4 9 -8z
m-154 -61 c0 -5 -6 -13 -13 -19 -10 -8 -13 -6 -14 9 -1 10 5 19 13 19 8 0 14
-4 14 -9z m-140 -55 c0 -3 -4 -8 -10 -11 -5 -3 -10 -1 -10 4 0 6 5 11 10 11 6
0 10 -2 10 -4z m146 -35 c-4 -5 0 -12 6 -14 7 -3 3 -6 -9 -6 -16 -1 -21 3 -17
14 4 8 10 15 16 15 5 0 7 -4 4 -9z"/>
<path d="M2004 1643 c-3 -16 -10 -41 -14 -58 -5 -16 -16 -68 -26 -114 -14 -65
-25 -92 -51 -124 -43 -51 -56 -75 -47 -89 4 -7 3 -8 -4 -4 -7 4 -13 -7 -18
-29 -8 -43 -5 -46 25 -38 16 4 21 11 18 24 -3 12 2 20 15 25 26 8 35 -3 21
-25 -6 -10 -15 -36 -19 -57 -4 -22 -13 -49 -21 -61 -13 -19 -12 -22 6 -28 26
-8 27 -21 1 -35 -11 -6 -20 -20 -20 -31 0 -17 -3 -18 -20 -9 -29 16 -24 92 11
162 6 13 4 16 -10 15 -13 -1 -21 -11 -25 -29 -3 -16 -12 -28 -21 -28 -8 0 -15
-4 -15 -10 0 -5 5 -10 11 -10 19 0 -33 -79 -70 -105 -20 -14 -30 -25 -23 -25
6 0 12 -8 12 -17 0 -14 2 -15 9 -4 7 11 13 11 32 -3 13 -9 18 -16 11 -16 -6 0
-12 -7 -12 -16 0 -10 -6 -14 -15 -11 -8 4 -17 2 -20 -3 -6 -10 13 -15 47 -12
12 1 15 -3 11 -15 -4 -10 -2 -14 4 -10 12 8 11 -36 -2 -45 -6 -4 -3 -19 9 -39
54 -92 -30 -250 -251 -471 l-108 -108 -100 -1 c-55 0 -120 -4 -145 -8 -32 -6
-2 -9 110 -10 l155 -1 72 63 c113 98 230 241 283 347 27 52 37 154 21 200 -10
30 -8 35 24 75 19 23 35 48 35 56 0 11 -2 11 -10 -1 -6 -9 -10 -10 -10 -3 0 6
5 15 10 18 6 4 8 15 5 25 -4 12 1 23 13 32 11 7 22 27 26 44 4 17 20 44 36 59
17 17 26 33 23 43 -4 9 -2 13 4 9 29 -18 79 127 54 156 -6 8 -8 17 -4 20 3 4
7 19 9 34 4 32 8 52 17 73 10 24 37 102 37 108 0 3 -14 -9 -30 -27 -33 -34
-42 -39 -34 -16 4 8 1 22 -6 30 -10 12 -10 18 0 30 19 23 20 64 0 70 -12 4
-16 13 -12 30 6 34 -6 32 -14 -2z m5 -215 c-7 -12 -12 -27 -11 -31 1 -5 -5 -7
-14 -5 -22 4 -31 28 -10 28 8 0 20 9 26 21 7 11 14 18 17 16 2 -3 -1 -16 -8
-29z m-83 -156 c-9 -9 -37 8 -31 18 5 8 11 7 21 -1 8 -6 12 -14 10 -17z m4
-142 c0 -5 -5 -10 -11 -10 -5 0 -7 5 -4 10 3 6 8 10 11 10 2 0 4 -4 4 -10z
m-84 -235 c-3 -9 -11 -13 -16 -10 -8 5 -7 11 1 21 14 18 24 11 15 -11z"/>
<path d="M2086 1571 c-4 -5 0 -12 6 -14 8 -3 6 -6 -4 -6 -10 -1 -18 -6 -18
-11 0 -7 6 -7 20 0 11 6 20 15 20 20 0 13 -18 22 -24 11z"/>
<path d="M1615 1546 c-65 -30 -245 -165 -245 -183 0 -8 -4 -12 -9 -9 -5 3 -31
-14 -58 -39 l-48 -45 46 4 c52 4 75 -5 65 -25 -4 -8 2 -3 13 10 12 13 21 29
21 37 0 18 59 12 71 -7 16 -25 9 -38 -52 -100 -42 -43 -57 -65 -50 -72 13 -13
59 6 78 33 8 12 20 17 30 13 9 -4 19 1 25 10 12 23 25 21 31 -3 3 -11 1 -20
-5 -20 -5 0 -6 -6 -2 -12 6 -10 3 -9 -9 0 -14 12 -16 11 -14 -7 2 -33 29 -25
75 24 24 25 47 43 52 40 13 -8 13 -72 -1 -135 -11 -50 -15 -54 -137 -153 -69
-56 -165 -135 -212 -175 -47 -40 -112 -94 -144 -120 -48 -38 -411 -342 -490
-411 -11 -10 -46 -18 -95 -22 l-76 -6 103 -1 c74 -2 102 1 102 10 0 7 11 21
24 33 13 11 89 76 168 146 78 69 172 147 208 174 36 27 111 90 168 139 57 50
118 96 135 102 21 7 27 12 17 16 -13 4 -13 6 0 19 8 8 31 23 52 33 23 12 34
25 31 33 -4 9 0 13 8 12 27 -6 101 42 112 72 6 16 16 30 22 30 5 1 16 2 24 3
7 0 17 11 22 23 6 16 4 21 -4 17 -9 -3 -12 22 -12 95 l1 99 42 55 c78 101 103
217 57 262 -31 32 -74 32 -140 1z m65 -26 c0 -5 -5 -10 -11 -10 -5 0 -7 5 -4
10 3 6 8 10 11 10 2 0 4 -4 4 -10z m60 -65 c0 -8 -7 -15 -15 -15 -8 0 -15 -6
-15 -12 0 -7 -5 -5 -11 5 -5 9 -7 22 -4 27 10 16 45 12 45 -5z m-50 -20 c0
-12 -19 -12 -23 0 -4 9 -1 12 9 8 7 -3 14 -7 14 -8z m-279 -80 c-1 -15 -24
-12 -29 3 -3 9 2 13 12 10 10 -1 17 -7 17 -13z m49 -25 c0 -5 -4 -10 -10 -10
-5 0 -10 5 -10 10 0 6 5 10 10 10 6 0 10 -4 10 -10z m60 -34 c0 -2 -7 -6 -15
-10 -8 -3 -15 -1 -15 4 0 6 7 10 15 10 8 0 15 -2 15 -4z"/>
<path d="M1316 1225 c-7 -18 -2 -23 35 -45 13 -7 18 -5 23 12 6 23 -11 41 -31
33 -6 -2 -13 1 -16 8 -2 6 -7 3 -11 -8z"/>
<path d="M1390 1216 c0 -9 5 -16 10 -16 6 0 10 4 10 9 0 6 -4 13 -10 16 -5 3
-10 -1 -10 -9z"/>
<path d="M1728 1074 c-16 -8 -28 -17 -28 -19 0 -6 52 16 65 27 15 13 -7 9 -37
-8z"/>
<path d="M1845 1050 c-3 -5 -1 -10 4 -10 6 0 11 5 11 10 0 6 -2 10 -4 10 -3 0
-8 -4 -11 -10z"/>
<path d="M1717 834 c3 -7 9 -14 14 -14 14 0 10 17 -5 23 -10 4 -13 1 -9 -9z"/>
<path d="M1463 688 c-5 -7 -13 -21 -16 -31 -4 -9 -16 -21 -28 -25 -21 -8 -21
-9 6 -30 34 -27 61 -35 105 -30 45 4 48 22 7 47 -19 12 -41 35 -49 51 -11 24
-17 28 -25 18z"/>
</g>
</svg>
