<?xml version="1.0" standalone="no"?>
<!DOCTYPE svg PUBLIC "-//W3C//DTD SVG 20010904//EN"
 "http://www.w3.org/TR/2001/REC-SVG-20010904/DTD/svg10.dtd">
<svg version="1.0" xmlns="http://www.w3.org/2000/svg"
 width="512.000000pt" height="512.000000pt" viewBox="0 0 512.000000 512.000000"
 preserveAspectRatio="xMidYMid meet">

<g transform="translate(0.000000,512.000000) scale(0.100000,-0.100000)"
fill="#000000" stroke="none">
<path d="M1673 5106 c-163 -40 -308 -172 -363 -331 -44 -128 -36 -266 23 -385
l32 -65 -41 -82 c-63 -124 -87 -224 -92 -379 -5 -154 11 -253 62 -381 l33 -82
-39 -38 c-67 -64 -82 -104 -83 -210 l0 -92 -65 -16 c-146 -37 -299 -132 -397
-246 -23 -28 -111 -164 -193 -304 l-151 -253 -62 -22 c-131 -47 -226 -129
-283 -245 -87 -176 -61 -383 66 -528 l40 -45 -58 -59 c-48 -48 -62 -70 -81
-129 -21 -67 -22 -85 -19 -300 3 -210 5 -233 25 -276 24 -53 71 -118 84 -118
9 0 88 82 102 105 4 8 -3 33 -18 61 -24 46 -25 52 -25 248 0 174 3 206 19 241
21 46 54 79 94 94 40 15 4514 15 4554 0 40 -15 73 -48 94 -94 16 -35 19 -67
19 -239 0 -183 -2 -203 -21 -243 -14 -29 -35 -52 -63 -68 l-43 -25 -1556 0
-1557 0 0 -85 0 -85 1583 2 1582 3 63 34 c70 38 120 92 154 167 22 47 23 60
23 299 l0 250 -31 65 c-20 43 -48 81 -80 110 l-50 44 53 71 c125 165 146 363
57 544 -60 121 -180 223 -311 261 -40 12 -46 20 -184 243 -159 256 -229 341
-346 417 -164 108 -265 130 -601 130 l-249 0 -6 123 c-4 67 -15 163 -26 212
-10 50 -18 90 -17 90 0 1 20 14 43 29 73 49 133 164 133 253 0 62 -76 248
-132 324 -55 74 -179 126 -273 114 l-52 -6 -47 83 c-136 244 -380 419 -651
468 l-70 13 -34 70 c-98 202 -345 317 -568 263z m242 -182 c35 -13 68 -36 115
-82 l65 -65 -74 -13 c-190 -34 -393 -135 -505 -253 -17 -17 -33 -31 -37 -31
-9 0 -29 91 -29 134 0 68 38 161 87 216 98 109 234 143 378 94z m275 -329 c0
-3 -12 -53 -26 -111 -15 -57 -24 -107 -21 -110 11 -11 152 -43 158 -36 4 4 19
59 34 122 15 63 29 117 31 119 2 2 37 -8 79 -24 81 -29 84 -34 60 -92 -9 -20
-12 -40 -8 -43 5 -4 40 -19 80 -33 l71 -26 11 31 11 32 51 -50 c88 -86 134
-167 245 -429 145 -343 170 -409 202 -533 24 -99 27 -123 27 -307 -1 -174 -4
-212 -23 -289 -27 -106 -88 -229 -149 -296 l-45 -50 -379 0 -380 0 -62 42
c-92 61 -283 258 -348 358 -80 122 -343 631 -373 722 -24 71 -47 228 -33 228
3 0 17 -4 30 -9 24 -9 26 -7 51 62 14 40 26 77 26 82 0 6 -19 17 -42 26 -40
13 -43 17 -40 48 1 19 11 54 22 78 l19 44 90 -61 c50 -33 94 -60 98 -60 12 1
94 130 89 139 -3 4 -46 35 -95 67 -50 32 -91 63 -91 68 0 13 142 148 177 168
l30 17 58 -122 c32 -67 59 -124 61 -126 3 -4 121 47 152 65 2 2 -21 56 -52
121 -31 66 -56 124 -56 130 0 9 39 23 105 37 30 6 155 7 155 1z m997 -566 c39
-19 48 -31 90 -118 54 -110 61 -162 27 -207 -11 -15 -24 -29 -30 -31 -7 -2
-129 274 -162 368 -6 16 30 10 75 -12z m-1679 -970 c99 -193 100 -200 25 -180
-51 14 -72 38 -123 140 -30 60 -42 96 -42 128 0 41 23 93 40 93 4 0 49 -82
100 -181z m-220 -184 c21 -46 101 -122 151 -144 70 -30 145 -36 206 -17 l50
16 35 -42 c19 -24 79 -89 133 -144 l99 -102 -49 -6 c-26 -3 -297 -31 -601 -61
-303 -31 -575 -60 -603 -65 -29 -6 -58 -10 -65 -10 -8 0 33 77 93 178 127 213
203 296 323 355 59 30 150 58 211 66 3 1 11 -10 17 -24z m2637 10 c105 -22
206 -76 286 -154 52 -50 97 -111 184 -251 64 -102 112 -186 108 -187 -4 -1
-206 -18 -449 -39 l-440 -37 -169 126 c-137 104 -174 127 -202 127 -18 0 -33
2 -33 4 0 3 18 38 40 79 47 87 86 195 101 284 l11 63 247 0 c177 0 265 -4 316
-15z m-635 -640 c45 -33 67 -56 59 -59 -8 -3 -230 -35 -494 -72 l-480 -67
-813 -300 -814 -299 -171 4 c-164 3 -174 4 -229 31 -111 55 -172 152 -172 277
-1 99 27 163 101 230 46 42 69 54 151 80 181 57 335 79 1077 155 l720 73 496
1 495 1 74 -55z m1465 -145 c260 -126 253 -500 -12 -623 -75 -34 -308 -30
-803 16 -664 62 -1411 127 -1451 127 -22 0 -147 -37 -291 -85 l-251 -85 -344
2 -343 3 577 213 578 212 560 80 c360 51 669 89 865 106 168 14 388 34 490 44
248 25 359 22 425 -10z"/>
<path d="M2710 3980 c-146 -20 -278 -113 -349 -245 l-22 -40 68 -32 c38 -17
73 -32 80 -32 6 -1 23 19 37 43 55 95 145 140 265 135 l80 -4 20 70 c12 38 21
75 21 82 0 10 -19 15 -120 27 -14 2 -50 0 -80 -4z"/>
<path d="M2808 3706 c-90 -31 -203 -89 -257 -133 l-24 -20 53 -65 53 -64 51
34 c61 41 133 75 211 97 50 15 56 20 52 38 -3 12 -11 50 -18 85 -6 34 -14 62
-18 62 -3 0 -50 -15 -103 -34z"/>
<path d="M1885 3613 c-73 -26 -133 -65 -186 -118 -51 -51 -106 -143 -93 -154
5 -5 40 -20 78 -35 55 -22 71 -24 77 -14 5 7 9 17 9 21 0 4 20 30 45 56 65 70
126 93 228 90 l81 -3 24 78 c13 43 21 81 17 84 -4 4 -57 8 -118 10 -87 2 -123
-2 -162 -15z"/>
<path d="M2310 3528 c-36 -16 -66 -31 -68 -33 -4 -3 207 -456 217 -467 7 -8
151 57 151 68 0 20 -216 464 -225 463 -5 0 -39 -14 -75 -31z"/>
<path d="M2047 3360 c-49 -17 -99 -35 -110 -41 -47 -24 -167 -104 -167 -112 0
-10 89 -121 101 -125 5 -2 23 8 41 21 47 35 143 82 213 103 33 10 61 18 62 19
7 2 -34 159 -42 161 -5 2 -50 -10 -98 -26z"/>
<path d="M2665 2970 c-47 -35 -141 -68 -213 -77 l-52 -6 0 -83 0 -84 30 0
c102 0 286 65 358 127 l33 28 -52 63 c-28 34 -54 62 -58 61 -3 0 -24 -14 -46
-29z"/>
<path d="M869 1104 c-78 -14 -174 -103 -200 -186 -12 -37 -13 -38 -63 -38
-129 -2 -231 -85 -258 -211 -9 -45 -8 -64 6 -113 15 -49 29 -71 82 -124 l64
-64 -11 -44 c-31 -124 42 -257 167 -304 89 -33 181 -21 265 34 l39 26 40 -29
c133 -96 332 -45 401 104 23 49 25 146 4 204 -8 22 -11 41 -6 41 20 0 91 75
111 117 84 175 -55 373 -260 373 -46 0 -48 1 -64 43 -37 97 -128 164 -232 171
-33 2 -71 2 -85 0z m106 -178 c34 -15 55 -41 55 -72 0 -9 -22 -38 -49 -64 -27
-26 -59 -66 -71 -89 -18 -37 -23 -41 -37 -29 -25 20 -53 89 -53 131 0 50 26
104 59 122 33 18 54 18 96 1z m345 -228 c19 -13 37 -35 41 -49 9 -37 -13 -83
-48 -98 -26 -11 -35 -9 -86 18 -31 16 -78 33 -104 37 -66 9 -68 12 -36 46 62
67 170 88 233 46z m-632 -53 c18 -33 49 -76 69 -96 l35 -37 -33 -7 c-85 -19
-166 3 -218 59 -58 61 -12 150 74 144 37 -3 41 -7 73 -63z m481 -243 c53 -43
73 -76 78 -129 5 -46 3 -51 -28 -77 -28 -24 -39 -27 -73 -23 -22 3 -49 16 -63
29 -21 21 -22 27 -12 56 6 18 9 67 7 108 l-3 76 30 -6 c16 -4 45 -19 64 -34z
m-259 -57 c0 -76 -64 -157 -134 -170 -83 -16 -155 69 -112 131 10 14 27 21 58
22 46 3 134 26 158 42 25 16 30 12 30 -25z"/>
</g>
</svg>
